<svg id="Layer_1_copy" data-name="Layer 1 copy" xmlns="http://www.w3.org/2000/svg" viewBox="0 0 22 22.01"><path id="Icon_awesome-user-graduate" data-name="Icon awesome-user-graduate" d="M2.36,22A2.22,2.22,0,0,1,0,19.94v-.41c0-3.1,2.8-5.62,6.32-5.75L11,17.88l4.69-4.1c3.51.13,6.31,2.64,6.31,5.75v.41A2.22,2.22,0,0,1,19.64,22ZM4.71,6.88A5,5,0,0,1,5.4,4.43L2.16,3.74V6a.93.93,0,0,1,.52,1.21.91.91,0,0,1-.47.51L3,10.4A.43.43,0,0,1,2.7,11l-.1,0h-2a.46.46,0,0,1-.4-.5.3.3,0,0,1,0-.1L.94,7.72A.94.94,0,0,1,1,6V3.49L.67,3.43c-.89-.19-.89-1.17,0-1.36L10,.1a4.58,4.58,0,0,1,2,0l9.35,2c.89.19.89,1.17,0,1.36l-4.73,1a4.89,4.89,0,0,1,.69,2.45c0,3-2.82,5.5-6.29,5.5S4.71,9.91,4.71,6.88Z" transform="translate(0 0)"/></svg>