<?xml version="1.0" encoding="utf-8"?>
<!-- Generator: Adobe Illustrator 25.4.1, SVG Export Plug-In . SVG Version: 6.00 Build 0)  -->
<svg version="1.1" id="Layer_1_copy" xmlns="http://www.w3.org/2000/svg" xmlns:xlink="http://www.w3.org/1999/xlink" x="0px"
	 y="0px" viewBox="0 0 23.3 18.4" style="enable-background:new 0 0 23.3 18.4;" xml:space="preserve">
<path id="Icon_map-art-gallery" d="M11.7,18.5c-2.3,0.1-4.2-1.8-4.3-4.1c0,0,0,0,0,0v-0.2c0-1.8-1.1-2.5-3.7-2.5
	c-1.1,0-2.1-0.4-2.8-1.2C0.3,9.6,0,8.5,0,7.4c0.2-1.8,1.2-3.5,2.6-4.6C4.6,1,7.2,0,9.8,0c4,0,7.2,0.7,9.5,2.2c2.6,1.6,4.2,4.6,4,7.7
	c0,2.3-1.1,4.5-2.8,5.9C18.4,17.5,15.3,18.5,11.7,18.5z M11.7,12.3c-1,0-1.9,0.8-1.9,1.8s0.8,1.9,1.8,1.9s1.9-0.8,1.9-1.8
	c0,0,0,0,0,0l0,0C13.5,13.1,12.7,12.3,11.7,12.3C11.7,12.3,11.7,12.3,11.7,12.3L11.7,12.3z M4,6.2c-0.9,0-1.5,0.7-1.5,1.5
	c0,0.9,0.7,1.5,1.5,1.5s1.5-0.7,1.5-1.5c0-0.4-0.2-0.8-0.5-1.1C4.8,6.3,4.4,6.2,4,6.2z M18.1,4.9c-0.9,0-1.5,0.7-1.5,1.5
	S17.2,8,18.1,8s1.5-0.7,1.5-1.5c0-0.4-0.2-0.8-0.5-1.1C18.9,5.1,18.5,4.9,18.1,4.9z M13.2,2.5c-0.9,0-1.5,0.7-1.5,1.5
	s0.7,1.5,1.5,1.5c0.9,0,1.5-0.7,1.5-1.5c0,0,0,0,0,0C14.7,3.2,14,2.5,13.2,2.5C13.2,2.5,13.2,2.5,13.2,2.5z M8.3,2.5
	C7.4,2.5,6.7,3.1,6.7,4s0.7,1.5,1.5,1.5S9.8,4.9,9.8,4l0,0l0,0C9.8,3.2,9.2,2.5,8.3,2.5L8.3,2.5L8.3,2.5z"/>
<image style="overflow:visible;" width="512" height="512" xlink:href="../../../../../../Downloads/iphone.png"  transform="matrix(0.2163 0 0 0.2163 17.9333 135.6556)">
</image>
</svg>
