<?xml version="1.0" encoding="utf-8"?>
<!-- Generator: Adobe Illustrator 25.4.1, SVG Export Plug-In . SVG Version: 6.00 Build 0)  -->
<svg version="1.1" id="Layer_1_copy" xmlns="http://www.w3.org/2000/svg" xmlns:xlink="http://www.w3.org/1999/xlink" x="0px"
	 y="0px" viewBox="0 0 23.3 18.4" style="enable-background:new 0 0 23.3 18.4;" xml:space="preserve">
<path id="Icon_map-art-gallery" d="M-41.7,21.3c-2.3,0.1-4.2-1.8-4.3-4.1c0,0,0,0,0,0V17c0-1.7-1.1-2.5-3.7-2.5
	c-1.1,0-2.1-0.4-2.8-1.2c-0.6-0.9-1-2-0.9-3.1c0.2-1.8,1.2-3.5,2.6-4.6c2-1.8,4.5-2.8,7.2-2.8c4,0,7.2,0.7,9.5,2.2
	c2.6,1.6,4.2,4.6,4,7.7c0,2.3-1.1,4.5-2.8,5.9C-34.9,20.4-38,21.3-41.7,21.3z M-41.7,15.2c-1,0-1.9,0.8-1.9,1.8c0,1,0.8,1.9,1.8,1.9
	c1,0,1.9-0.8,1.9-1.8c0,0,0,0,0,0l0,0C-39.8,16-40.6,15.2-41.7,15.2C-41.6,15.2-41.6,15.2-41.7,15.2L-41.7,15.2z M-49.3,9
	c-0.9,0-1.5,0.7-1.5,1.5s0.7,1.5,1.5,1.5s1.5-0.7,1.5-1.5c0-0.4-0.2-0.8-0.5-1.1C-48.5,9.2-48.9,9-49.3,9z M-35.2,7.8
	c-0.9,0-1.5,0.7-1.5,1.5c0,0.9,0.7,1.5,1.5,1.5c0.9,0,1.5-0.7,1.5-1.5c0-0.4-0.2-0.8-0.5-1.1C-34.4,8-34.8,7.8-35.2,7.8z M-40.1,5.3
	c-0.9,0-1.5,0.7-1.5,1.5c0,0.9,0.7,1.5,1.5,1.5c0.9,0,1.5-0.7,1.5-1.5c0,0,0,0,0,0C-38.6,6-39.3,5.4-40.1,5.3
	C-40.1,5.3-40.1,5.3-40.1,5.3z M-45.1,5.3c-0.9,0-1.5,0.7-1.5,1.5s0.7,1.5,1.5,1.5s1.5-0.7,1.5-1.5l0,0l0,0
	C-43.5,6-44.2,5.4-45.1,5.3L-45.1,5.3L-45.1,5.3z"/>
<image style="overflow:visible;" width="512" height="512" xlink:href="../../../../../../Downloads/iphone.png"  transform="matrix(3.611112e-02 0 0 3.611112e-02 -44.5 -39.3333)">
</image>
<g>
	<path d="M17.9,13.4V2.2c0-1.3-1-2.3-2.3-2.3h-8C6.4,0,5.4,1,5.4,2.2v11.2H17.9z M11.7,1.4c0.4,0,0.7,0.3,0.7,0.7
		c0,0.4-0.3,0.7-0.7,0.7C11.3,2.7,11,2.4,11,2C11,1.7,11.3,1.4,11.7,1.4z"/>
	<path d="M5.4,14.8v1.4c0,1.3,1,2.3,2.3,2.3h8c1.3,0,2.3-1,2.3-2.3v-1.4H5.4z M11.7,17.2c-0.4,0-0.7-0.3-0.7-0.7
		c0-0.4,0.3-0.7,0.7-0.7c0.4,0,0.7,0.3,0.7,0.7C12.3,16.9,12,17.2,11.7,17.2z"/>
</g>
</svg>
