<svg id="Layer_1_copy" data-name="Layer 1 copy" xmlns="http://www.w3.org/2000/svg" viewBox="0 0 24.12 19.3"><path id="Icon_awesome-laptop-code" data-name="Icon awesome-laptop-code" d="M21.71,19.3H2.41A2.41,2.41,0,0,1,0,16.89v-.6a.6.6,0,0,1,.6-.6h9a1.29,1.29,0,0,0,1.23,1.2h2.3a1.18,1.18,0,0,0,1.23-1.13v-.07h9.14a.6.6,0,0,1,.6.6h0v.6A2.41,2.41,0,0,1,21.71,19.3Zm0-4.82H2.41V1.81A1.82,1.82,0,0,1,4.22,0H19.9a1.81,1.81,0,0,1,1.81,1.81V14.48ZM4.82,2.41v9.65H19.3V2.41ZM14.09,10a.58.58,0,0,1-.43-.18l-.43-.42a.62.62,0,0,1,0-.86l1.35-1.34L13.23,5.89a.61.61,0,0,1,0-.85h0l.43-.43a.6.6,0,0,1,.85,0h0l2.2,2.2a.6.6,0,0,1,0,.86l-2.2,2.19a.56.56,0,0,1-.42.18ZM10,10a.6.6,0,0,1-.43-.18l-2.2-2.2a.6.6,0,0,1,0-.84h0l2.2-2.2a.6.6,0,0,1,.85,0h0l.42.43a.59.59,0,0,1,0,.85L9.55,7.24l1.34,1.34a.6.6,0,0,1,0,.85h0l-.42.42A.58.58,0,0,1,10,10Z" transform="translate(0)"/></svg>