<svg id="Layer_1" data-name="Layer 1" xmlns="http://www.w3.org/2000/svg" viewBox="0 0 18.89 14.17"><path id="Icon_awesome-chart-bar" data-name="Icon awesome-chart-bar" d="M18.3,14.17H1.18A1.18,1.18,0,0,1,0,13V.59A.58.58,0,0,1,.59,0H1.77a.58.58,0,0,1,.59.59V11.8H18.3a.58.58,0,0,1,.59.59v1.18a.6.6,0,0,1-.59.6ZM17.24,9.44H15.82A.51.51,0,0,1,15.35,9V.47A.51.51,0,0,1,15.82,0h1.42a.51.51,0,0,1,.47.47V9a.5.5,0,0,1-.48.47Zm-3.54,0H12.28A.51.51,0,0,1,11.81,9V4a.5.5,0,0,1,.47-.47H13.7a.51.51,0,0,1,.47.47V9a.51.51,0,0,1-.48.47Zm-3.55,0H8.74A.49.49,0,0,1,8.27,9V1.65a.5.5,0,0,1,.47-.47h1.41a.5.5,0,0,1,.47.47V9a.5.5,0,0,1-.47.47Zm-3.54,0H5.2A.51.51,0,0,1,4.72,9V6.37A.52.52,0,0,1,5.2,5.9H6.61a.49.49,0,0,1,.47.47V9a.51.51,0,0,1-.47.47Z" transform="translate(0 0)"/></svg>