<svg id="Layer_1" data-name="Layer 1" xmlns="http://www.w3.org/2000/svg" viewBox="0 0 21.98 21.99"><path id="history_icon" data-name="history icon" d="M11,22h0a11,11,0,0,1-6.9-2.44,1.05,1.05,0,0,1-.16-1.49L4,18l.5-.5a1.07,1.07,0,0,1,.76-.31,1,1,0,0,1,.65.23A8.16,8.16,0,1,0,5.41,5.05L7.66,7.3a.71.71,0,0,1-.5,1.21H.71A.71.71,0,0,1,0,7.8V1.36A.71.71,0,0,1,.71.65a.67.67,0,0,1,.5.21L3.4,3.05A11,11,0,1,1,11,22Zm2.12-7.11a1.05,1.05,0,0,1-.65-.23L9.58,12.4v-6a1.07,1.07,0,0,1,1.06-1.07h.71a1.07,1.07,0,0,1,1.07,1.07V11l1.8,1.4a1.07,1.07,0,0,1,.19,1.5l-.44.56a1.06,1.06,0,0,1-.84.41Z" transform="translate(0 -0.01)"/></svg>