<svg id="Layer_1" data-name="Layer 1" xmlns="http://www.w3.org/2000/svg" viewBox="0 0 1920 126"><path d="M1,0C6.43,3.51,11.73,7.24,17.3,10.49A595.76,595.76,0,0,0,122.94,58.81c29.22,10.11,59,18.66,89.37,24.58,17.19,3.34,34.34,7,51.62,9.78,13.77,2.25,27.68,3.7,41.56,5.16,14.9,1.56,29.84,2.82,44.78,4,10.86.85,21.77,1.19,32.64,2.06C427.41,108,472,106,516.53,106.24c17.21.1,34.43-1.14,51.64-1.91,12.06-.53,24.1-1.22,36.15-2q21.24-1.35,42.46-3c16.1-1.25,32.19-2.62,48.28-4,14.94-1.28,29.88-2.5,44.78-4,17.83-1.82,35.61-4,53.43-5.89C808,83.9,822.8,82.86,837.54,81.3c13.39-1.41,26.72-3.33,40.1-4.85,10.3-1.17,20.65-2,31-3.12,13.55-1.52,27.06-3.3,40.61-4.83,7.69-.86,15.43-1.33,23.12-2.17,10.45-1.13,20.88-2.48,31.33-3.66,7.35-.84,14.73-1.52,22.09-2.32,14.87-1.61,29.73-3.31,44.6-4.88,7.7-.81,15.43-1.35,23.13-2.13,12.27-1.24,24.52-2.64,36.79-3.85,8.37-.83,16.76-1.39,25.13-2.14,14.43-1.29,28.86-2.68,43.29-3.92,9.21-.79,18.43-1.4,27.64-2.07q27.39-2,54.79-4c6.26-.44,12.54-.75,18.82-1,15.71-.71,31.43-1.31,47.14-2,12.55-.59,25.09-1.53,37.64-1.91,17.77-.55,35.54-.79,53.32-1,27.93-.39,55.87-.84,83.81-.95,13.43-.05,26.88.48,40.31,1q21.58.78,43.14,2c15.83.88,31.67,1.68,47.46,3,19.17,1.66,38.29,3.87,57.43,5.85,12.93,1.35,25.89,2.45,38.77,4.14,14.78,1.94,29.51,4.32,44.24,6.66,14.57,2.32,29.15,4.59,43.65,7.32,15.91,3,31.74,6.42,47.59,9.76,10.89,2.29,21.74,4.76,32.62,7.08a10.35,10.35,0,0,0,3-.24v49H0Q0,65,0,4A17.63,17.63,0,0,1,1,0Z" transform="translate(0)"/></svg>